<mxfile host="app.diagrams.net" agent="Mozilla/5.0 (Macintosh; Intel Mac OS X 10_15_7) AppleWebKit/605.1.15 (KHTML, like Gecko) Version/18.4 Safari/605.1.15" version="26.2.13">
  <diagram id="FeAJWrN3bseI80F0Ub7A" name="4 oldal">
    <mxGraphModel dx="635" dy="522" grid="1" gridSize="10" guides="1" tooltips="1" connect="1" arrows="1" fold="1" page="1" pageScale="1" pageWidth="1169" pageHeight="827" math="0" shadow="0">
      <root>
        <mxCell id="0" />
        <mxCell id="1" parent="0" />
        <mxCell id="GLdSuqhr_ndtlMI82KMZ-1" value="Auto" style="rounded=0;whiteSpace=wrap;html=1;fillColor=#f8cecc;strokeColor=#b85450;" parent="1" vertex="1">
          <mxGeometry x="220" y="180" width="160" height="80" as="geometry" />
        </mxCell>
        <mxCell id="GLdSuqhr_ndtlMI82KMZ-3" value="Tulajdonos" style="rounded=0;whiteSpace=wrap;html=1;fillColor=#dae8fc;strokeColor=#6c8ebf;" parent="1" vertex="1">
          <mxGeometry x="860" y="180" width="160" height="80" as="geometry" />
        </mxCell>
        <mxCell id="GLdSuqhr_ndtlMI82KMZ-7" value="" style="edgeStyle=orthogonalEdgeStyle;rounded=0;orthogonalLoop=1;jettySize=auto;html=1;entryX=1.021;entryY=0.498;entryDx=0;entryDy=0;entryPerimeter=0;" parent="1" source="GLdSuqhr_ndtlMI82KMZ-6" target="GLdSuqhr_ndtlMI82KMZ-1" edge="1">
          <mxGeometry relative="1" as="geometry">
            <mxPoint x="340" y="210" as="targetPoint" />
          </mxGeometry>
        </mxCell>
        <mxCell id="GLdSuqhr_ndtlMI82KMZ-6" value="A - T" style="rhombus;whiteSpace=wrap;html=1;fillColor=#f5f5f5;fontColor=#333333;strokeColor=#666666;" parent="1" vertex="1">
          <mxGeometry x="600" y="180" width="80" height="80" as="geometry" />
        </mxCell>
        <mxCell id="K59Gw_I-BTYTl3TcFakW-26" value="&lt;u&gt;Rendszám(PK)&lt;/u&gt;" style="ellipse;whiteSpace=wrap;html=1;" parent="1" vertex="1">
          <mxGeometry x="10" y="268.75" width="120" height="60" as="geometry" />
        </mxCell>
        <mxCell id="K59Gw_I-BTYTl3TcFakW-27" value="Szin (NN)" style="ellipse;whiteSpace=wrap;html=1;" parent="1" vertex="1">
          <mxGeometry x="320" y="390" width="120" height="60" as="geometry" />
        </mxCell>
        <mxCell id="K59Gw_I-BTYTl3TcFakW-28" value="Tulaj (FK)" style="ellipse;whiteSpace=wrap;html=1;" parent="1" vertex="1">
          <mxGeometry x="480" y="268.75" width="120" height="60" as="geometry" />
        </mxCell>
        <mxCell id="K59Gw_I-BTYTl3TcFakW-29" value="&lt;u&gt;Kód (PK)&lt;/u&gt;" style="ellipse;whiteSpace=wrap;html=1;" parent="1" vertex="1">
          <mxGeometry x="720" y="300" width="120" height="60" as="geometry" />
        </mxCell>
        <mxCell id="K59Gw_I-BTYTl3TcFakW-31" value="Név" style="ellipse;whiteSpace=wrap;html=1;" parent="1" vertex="1">
          <mxGeometry x="880" y="300" width="120" height="60" as="geometry" />
        </mxCell>
        <mxCell id="K59Gw_I-BTYTl3TcFakW-32" value="Város" style="ellipse;whiteSpace=wrap;html=1;" parent="1" vertex="1">
          <mxGeometry x="1040" y="300" width="120" height="60" as="geometry" />
        </mxCell>
        <mxCell id="K59Gw_I-BTYTl3TcFakW-39" value="" style="endArrow=none;html=1;rounded=0;entryX=0.5;entryY=1;entryDx=0;entryDy=0;exitX=0.5;exitY=0;exitDx=0;exitDy=0;" parent="1" source="K59Gw_I-BTYTl3TcFakW-32" target="GLdSuqhr_ndtlMI82KMZ-3" edge="1">
          <mxGeometry width="50" height="50" relative="1" as="geometry">
            <mxPoint x="662.53" y="348.75" as="sourcePoint" />
            <mxPoint x="712.53" y="298.75" as="targetPoint" />
          </mxGeometry>
        </mxCell>
        <mxCell id="K59Gw_I-BTYTl3TcFakW-40" value="" style="endArrow=none;html=1;rounded=0;entryX=0.5;entryY=1;entryDx=0;entryDy=0;exitX=0.5;exitY=0;exitDx=0;exitDy=0;" parent="1" source="K59Gw_I-BTYTl3TcFakW-31" target="GLdSuqhr_ndtlMI82KMZ-3" edge="1">
          <mxGeometry width="50" height="50" relative="1" as="geometry">
            <mxPoint x="662.53" y="348.75" as="sourcePoint" />
            <mxPoint x="712.53" y="298.75" as="targetPoint" />
          </mxGeometry>
        </mxCell>
        <mxCell id="K59Gw_I-BTYTl3TcFakW-41" value="" style="endArrow=none;html=1;rounded=0;entryX=0.5;entryY=1;entryDx=0;entryDy=0;exitX=0.5;exitY=0;exitDx=0;exitDy=0;" parent="1" source="K59Gw_I-BTYTl3TcFakW-29" target="GLdSuqhr_ndtlMI82KMZ-3" edge="1">
          <mxGeometry width="50" height="50" relative="1" as="geometry">
            <mxPoint x="787.53" y="278.75" as="sourcePoint" />
            <mxPoint x="712.53" y="298.75" as="targetPoint" />
          </mxGeometry>
        </mxCell>
        <mxCell id="K59Gw_I-BTYTl3TcFakW-42" value="" style="endArrow=none;html=1;rounded=0;entryX=0.5;entryY=1;entryDx=0;entryDy=0;exitX=0;exitY=0;exitDx=0;exitDy=0;" parent="1" source="K59Gw_I-BTYTl3TcFakW-28" target="GLdSuqhr_ndtlMI82KMZ-1" edge="1">
          <mxGeometry width="50" height="50" relative="1" as="geometry">
            <mxPoint x="360" y="340" as="sourcePoint" />
            <mxPoint x="410" y="290" as="targetPoint" />
          </mxGeometry>
        </mxCell>
        <mxCell id="K59Gw_I-BTYTl3TcFakW-43" value="" style="endArrow=none;html=1;rounded=0;entryX=0.5;entryY=1;entryDx=0;entryDy=0;exitX=0.5;exitY=0;exitDx=0;exitDy=0;" parent="1" source="K59Gw_I-BTYTl3TcFakW-27" edge="1" target="GLdSuqhr_ndtlMI82KMZ-1">
          <mxGeometry width="50" height="50" relative="1" as="geometry">
            <mxPoint x="360" y="340" as="sourcePoint" />
            <mxPoint x="170" y="240" as="targetPoint" />
          </mxGeometry>
        </mxCell>
        <mxCell id="K59Gw_I-BTYTl3TcFakW-44" value="" style="endArrow=none;html=1;rounded=0;entryX=0.5;entryY=1;entryDx=0;entryDy=0;exitX=1;exitY=0;exitDx=0;exitDy=0;" parent="1" source="K59Gw_I-BTYTl3TcFakW-26" target="GLdSuqhr_ndtlMI82KMZ-1" edge="1">
          <mxGeometry width="50" height="50" relative="1" as="geometry">
            <mxPoint x="360" y="340" as="sourcePoint" />
            <mxPoint x="410" y="290" as="targetPoint" />
          </mxGeometry>
        </mxCell>
        <mxCell id="K59Gw_I-BTYTl3TcFakW-50" value="" style="endArrow=classic;html=1;rounded=0;entryX=0;entryY=0.5;entryDx=0;entryDy=0;exitX=1;exitY=0.5;exitDx=0;exitDy=0;" parent="1" source="GLdSuqhr_ndtlMI82KMZ-6" target="GLdSuqhr_ndtlMI82KMZ-3" edge="1">
          <mxGeometry relative="1" as="geometry">
            <mxPoint x="825" y="230" as="sourcePoint" />
            <mxPoint x="695" y="220" as="targetPoint" />
          </mxGeometry>
        </mxCell>
        <mxCell id="K59Gw_I-BTYTl3TcFakW-59" value="" style="endArrow=classic;html=1;rounded=0;exitX=0;exitY=0.5;exitDx=0;exitDy=0;entryX=0.978;entryY=0.502;entryDx=0;entryDy=0;entryPerimeter=0;" parent="1" source="GLdSuqhr_ndtlMI82KMZ-6" target="GLdSuqhr_ndtlMI82KMZ-1" edge="1">
          <mxGeometry relative="1" as="geometry">
            <mxPoint x="360" y="220" as="sourcePoint" />
            <mxPoint x="230" y="210" as="targetPoint" />
          </mxGeometry>
        </mxCell>
        <mxCell id="gdM2KSdG-7uIJm-8OQxL-1" value="Tipus (NN)" style="ellipse;whiteSpace=wrap;html=1;" vertex="1" parent="1">
          <mxGeometry x="170" y="390" width="120" height="60" as="geometry" />
        </mxCell>
        <mxCell id="gdM2KSdG-7uIJm-8OQxL-2" value="Ar (NN)" style="ellipse;whiteSpace=wrap;html=1;" vertex="1" parent="1">
          <mxGeometry x="40" y="340" width="120" height="60" as="geometry" />
        </mxCell>
        <mxCell id="gdM2KSdG-7uIJm-8OQxL-3" value="" style="endArrow=none;dashed=1;html=1;rounded=0;exitX=0.061;exitY=0.716;exitDx=0;exitDy=0;exitPerimeter=0;" edge="1" parent="1">
          <mxGeometry width="50" height="50" relative="1" as="geometry">
            <mxPoint x="520" y="309.44000000000005" as="sourcePoint" />
            <mxPoint x="560" y="309.44" as="targetPoint" />
          </mxGeometry>
        </mxCell>
        <mxCell id="gdM2KSdG-7uIJm-8OQxL-9" value="" style="endArrow=none;html=1;rounded=0;entryX=0.5;entryY=1;entryDx=0;entryDy=0;exitX=0.5;exitY=0;exitDx=0;exitDy=0;" edge="1" parent="1" source="gdM2KSdG-7uIJm-8OQxL-1" target="GLdSuqhr_ndtlMI82KMZ-1">
          <mxGeometry width="50" height="50" relative="1" as="geometry">
            <mxPoint x="197" y="274" as="sourcePoint" />
            <mxPoint x="260" y="280" as="targetPoint" />
          </mxGeometry>
        </mxCell>
        <mxCell id="gdM2KSdG-7uIJm-8OQxL-11" value="Kor (NN)" style="ellipse;whiteSpace=wrap;html=1;" vertex="1" parent="1">
          <mxGeometry x="450" y="340" width="120" height="60" as="geometry" />
        </mxCell>
        <mxCell id="gdM2KSdG-7uIJm-8OQxL-12" value="" style="endArrow=none;html=1;rounded=0;exitX=0.787;exitY=0.085;exitDx=0;exitDy=0;exitPerimeter=0;entryX=0.5;entryY=1;entryDx=0;entryDy=0;" edge="1" parent="1" source="gdM2KSdG-7uIJm-8OQxL-2" target="GLdSuqhr_ndtlMI82KMZ-1">
          <mxGeometry width="50" height="50" relative="1" as="geometry">
            <mxPoint x="110" y="350" as="sourcePoint" />
            <mxPoint x="270" y="240" as="targetPoint" />
          </mxGeometry>
        </mxCell>
        <mxCell id="gdM2KSdG-7uIJm-8OQxL-13" value="" style="endArrow=none;html=1;rounded=0;entryX=0.5;entryY=1;entryDx=0;entryDy=0;" edge="1" parent="1" source="gdM2KSdG-7uIJm-8OQxL-11" target="GLdSuqhr_ndtlMI82KMZ-1">
          <mxGeometry width="50" height="50" relative="1" as="geometry">
            <mxPoint x="280" y="300" as="sourcePoint" />
            <mxPoint x="330" y="250" as="targetPoint" />
          </mxGeometry>
        </mxCell>
      </root>
    </mxGraphModel>
  </diagram>
</mxfile>
